<svg class="logo" xmlns="http://www.w3.org/2000/svg" fill="none" viewBox="0 0 476 148"><path fill="#000" d="M179 125.053V23h18.555v37.1101h27.833V23h18.555v102.053h-18.555V78.6651h-27.833v46.3879H179Zm120.68 0V23h55.665v18.555h-37.11v18.5551h37.11v18.555h-37.11v27.8329h37.11v18.555H299.68Zm111.331 0V97.2202h9.277V78.6651h9.278v-9.2775h-9.278v-18.555h-9.277V23h18.555v18.555h9.277v18.5551h9.278V41.555h9.277V23h18.555v27.8326h-9.277v18.555h-9.278v9.2775h9.278v18.5551h9.277v27.8328h-18.555v-18.555h-9.277V87.9427h-9.278v18.5553h-9.277v18.555h-18.555Z"/><path fill="#000" fill-rule="evenodd" d="M42 0h28v12h14v12h14v14h14v72H98v14H84v12H70v12H42v-12H28v-12H14v-14H0V38h14V24h14V12h14V0Z" clip-rule="evenodd"/></svg>