<svg xmlns="http://www.w3.org/2000/svg" fill="none" viewBox="0 0 600 148"><path fill="#000" d="M179 125.053V23h18.555v37.1101h27.833V23h18.555v102.053h-18.555V78.6651h-27.833v46.3879H179Zm120.68 0V23h55.665v18.555h-37.11v18.5551h37.11v18.555h-37.11v27.8329h37.11v18.555H299.68Zm111.331 0V97.2202h9.277V78.6651h9.278v-9.2775h-9.278v-18.555h-9.277V23h18.555v18.555h9.277v18.5551h9.278V41.555h9.277V23h18.555v27.8326h-9.277v18.555h-9.278v9.2775h9.278v18.5551h9.277v27.8328h-18.555v-18.555h-9.277V87.9427h-9.278v18.5553h-9.277v18.555h-18.555Z"/><path fill="#000" fill-opacity=".71" d="M551.5 49.8333v-2.1666h-4.333v-6.5h4.333V39h-2.167v-4.3333h-2.166V32.5h4.333v-2.1667h-4.333v-2.1666h4.333V26h2.167v2.1667H558V39h-4.333v2.1667H558v2.1666h-4.333V45.5H558v2.1667h-4.333v2.1666H551.5Zm8.667-4.3333v-4.3333h2.166V45.5h-2.166Zm4.333 2.1667h2.167v2.1666h-4.334v-2.1666h2.167Zm2.167 0V45.5h2.166v2.1667h-2.166Zm2.166-2.1667v-4.3333h-2.166V39H564.5v2.1667h-2.167v-6.5h-2.166V32.5h2.166v-4.3333H558V26h13v19.5h-2.167Zm-17.333 0v-2.1667h-2.167V45.5h2.167Zm17.333-6.5V28.1667H564.5v8.6666h2.167V39h2.166Zm-15.166-2.1667h2.166v-2.1666H551.5v2.1666h2.167Zm2.166-4.3333v-2.1667h-2.166V32.5h2.166Zm23.825 17.3333V26h2.167v23.8333h-2.167Zm-4.333-6.5V32.5h2.166v10.8333h-2.166Zm8.666-6.5V32.5h2.167v4.3333h-2.167Zm13 10.8334h2.167v2.1666h-15.167v-2.1666h8.667v-6.5h-6.5V39h6.5v-6.5h-6.5V26h2.167v4.3333h4.333V26h2.167v4.3333h4.333V32.5h-4.333V39h4.333v2.1667h-4.333v6.5h2.166Zm-49.824 38.1666v-2.1666h2.166v2.1666h-2.166Zm2.166-13v-2.1666h2.167v2.1666h-2.167Zm4.334-2.1666V68.5h2.166v2.1667h-2.166Zm-2.167-4.3334v-2.1666h2.167v2.1666H551.5Zm17.333 17.3334H571v2.1666h-15.167v-2.1666h13Zm-13 0h-2.166V81.5h2.166v2.1667Zm-6.5 0V81.5h2.167v2.1667h-2.167Zm19.5-4.3334H571V81.5h-13v-13h-2.167v-2.1667H558V62h2.167v2.1667h4.333V62h2.167v2.1667H571v2.1666h-4.333V68.5H571v2.1667h-4.333v2.1666H571V75h-4.333v4.3333h2.166Zm-6.5 0h2.167V75h-4.333v4.3333h2.166ZM553.667 81.5H551.5v-4.3333h-4.333V75h6.5v6.5Zm8.666-8.6667h2.167v-2.1666h-4.333v2.1666h2.166Zm0-4.3333h2.167v-2.1667h-4.333V68.5h2.166Zm-13 2.1667h-2.166V68.5h2.166v2.1667Zm2.167-6.5h-2.167V62h2.167v2.1667Zm25.991 15.1666v-2.1666h2.167v2.1666h-2.167Zm6.5 4.3334h2.167v2.1666h-8.667v-2.1666h6.5Zm4.334-2.1667h2.166v2.1667h-4.333V81.5h2.167Zm2.166 0v-2.1667h2.167V81.5h-2.167Zm2.167-2.1667v-2.1666h2.167v2.1666h-2.167Zm-6.5 0h-2.167v-2.1666h2.167v-4.3334h-10.833v-2.1666h4.333v-6.5h2.167v6.5h4.333V62h2.167v2.1667h8.666v2.1666h-8.666v4.3334h10.833v2.1666h-10.833v6.5h-2.167Zm8.667-2.1666V75h2.166v2.1667h-2.166Zm-15.167 0V75h2.167v2.1667h-2.167ZM551.5 121.833V117.5h-2.167v2.167h-2.166V117.5h2.166v-2.167h2.167v-2.166h-4.333V111h4.333v-2.167h-4.333v-2.166h2.166v-4.334h-2.166v-2.166h4.333V98h2.167v2.167H558v6.5h2.167V98H571v15.167h-2.167v6.5H571v2.166h-4.333v-8.666H564.5v4.333h-2.167v2.167h-2.166v2.166h-4.334v-2.166h4.334V117.5h2.166v-4.333h-2.166v-4.334h-6.5V111H558v2.167h-2.167v2.166H558v2.167h-2.167v-2.167h-2.166v6.5H551.5ZM566.667 111h2.166v-2.167h-6.5V111h4.334Zm0-4.333h2.166V104.5h-6.5v2.167h4.334Zm-13 0h2.166v-4.334H551.5v4.334h2.167Zm13-4.334h2.166v-2.166h-6.5v2.166h4.334Zm15.158 19.5v-8.666h-2.167v2.166h-2.167v2.167h-2.166v-2.167h2.166v-2.166h2.167V111h2.167v-2.167h-6.5v-2.166h6.5v-4.334h-6.5v-2.166h8.666v6.5h4.334v-6.5h10.833v19.5h-10.833V117.5h-2.167v-2.167h-2.167v6.5h-2.166Zm13-4.333h2.166v-15.167h-6.5V117.5h4.334Zm-6.5-2.167v-6.5h-4.334v4.334h2.167v2.166h2.167Zm0-15.166h-4.334V98h4.334v2.167Z"/><path fill="#000" fill-rule="evenodd" d="M42 0h28v12h14v12h14v14h14v72H98v14H84v12H70v12H42v-12H28v-12H14v-14H0V38h14V24h14V12h14V0Z" clip-rule="evenodd"/></svg>